HIERARCHY
ROOT Hips
{
  OFFSET 9.33506 97.6794 116.859
  CHANNELS 6 Xposition Yposition Zposition Zrotation Xrotation Yrotation
  JOINT RightUpLeg
  {
    OFFSET -8.9458 -8.66707 0.101652
    CHANNELS 3 Zrotation Xrotation Yrotation
    JOINT RightLeg
    {
      OFFSET 0 -44.4227 1.3727
      CHANNELS 3 Zrotation Xrotation Yrotation
      JOINT RightFoot
      {
        OFFSET 0.253549 -42.0924 -1.46059
        CHANNELS 3 Zrotation Xrotation Yrotation
        JOINT RightToes
        {
          OFFSET 0.04 -4.41509 8.4991
          CHANNELS 3 Zrotation Xrotation Yrotation
          End Site
          {
            OFFSET -0.08 -0.137448 9.77979
          }
        }
      }
    }
  }
  JOINT Spine
  {
    OFFSET 0 11.8905 0
    CHANNELS 3 Zrotation Xrotation Yrotation
    JOINT Spine1
    {
      OFFSET 0 25.6574 0.127663
      CHANNELS 3 Zrotation Xrotation Yrotation
      JOINT HEad
      {
        OFFSET 0 8.73416 0.011341
        CHANNELS 3 Zrotation Xrotation Yrotation
        End Site
        {
          OFFSET -0.29 12.7742 2.51395
        }
      }
      JOINT LeftShoulder1
      {
        OFFSET 8.99 -0.362252 -0.22
        CHANNELS 3 Zrotation Xrotation Yrotation
        JOINT LeftArm
        {
          OFFSET 10.2827 -0.00338 0.322123
          CHANNELS 3 Zrotation Xrotation Yrotation
          JOINT LeftForeArm
          {
            OFFSET 32.7669 0.099144 -1.42434
            CHANNELS 3 Zrotation Xrotation Yrotation
            JOINT LeftHand
            {
              OFFSET 27.5643 0.085362 1.02216
              CHANNELS 3 Zrotation Xrotation Yrotation
              End Site
              {
                OFFSET 16.7443 -0.6 1.50291
              }
            }
          }
        }
      }
      JOINT RightShoulder
      {
        OFFSET -8.99 -0.362252 -0.22
        CHANNELS 3 Zrotation Xrotation Yrotation
        JOINT RightArm
        {
          OFFSET -10.2827 -0.00338 0.322123
          CHANNELS 3 Zrotation Xrotation Yrotation
          JOINT RightForeArm
          {
            OFFSET -32.8971 0.099144 -1.42434
            CHANNELS 3 Zrotation Xrotation Yrotation
            JOINT RightHand
            {
              OFFSET -27.4921 0.085362 1.02216
              CHANNELS 3 Zrotation Xrotation Yrotation
              End Site
              {
                OFFSET -16.6312 -0.6 1.50291
              }
            }
          }
        }
      }
    }
  }
  JOINT LeftUpLeg
  {
    OFFSET 8.9458 -8.66707 0.101652
    CHANNELS 3 Zrotation Xrotation Yrotation
    JOINT LeftLeg
    {
      OFFSET 0 -44.4227 1.3727
      CHANNELS 3 Zrotation Xrotation Yrotation
      JOINT LeftFoot
      {
        OFFSET -0.253549 -42.0924 -1.46059
        CHANNELS 3 Zrotation Xrotation Yrotation
        JOINT LeftToes
        {
          OFFSET -0.04 -4.41509 8.4991
          CHANNELS 3 Zrotation Xrotation Yrotation
          End Site
          {
            OFFSET 0.08 -0.047448 9.77979
          }
        }
      }
    }
  }
}
MOTION
Frames:	18
Frame Time:	0.0166667
9.33506 97.6794 116.859 -3.56848 -0.0366124 175.455 -3.55745 -11.0901 -0.382539 7.10938 53.8766 -5.24245 7.60318 -4.48137 -0.145438 0.0462048 0.000533964 0.662642 -1.99287 2.88928 0.716442 1.92677 23.5181 -0.378555 2.43748 -7.6222 4.594 1.32417e-031 9.54166e-015 -7.95139e-016 -94.9373 -22.9162 -19.8668 -24.3833 14.9147 -18.3303 0.368473 9.90896 -0.00117926 -6.54491 0.0291187 -2.43189 89.0108 -7.85058 18.0724 25.0178 13.828 17.973 -0.369625 9.91382 0.00119885 -8.39865 -33.8123 1.44418 -4.3883 31.4828 30.4 -1.95069 -11.9845 -0.0120872 6.79048e-012 -6.2183e-011 -4.42765e-011 
9.1077 97.559 115.053 -4.07782 0.509474 175.161 -4.24979 -11.4345 1.26685 7.00769 55.4173 -4.24279 9.23974 -0.104468 -0.511527 0.306982 -7.26789 -1.9616 -2.53071 2.96301 0.710913 1.36907 24.4243 -0.300459 2.09599 -7.35681 4.83039 -1.19271e-015 3.18055e-015 -0 -95.054 -22.5178 -21.061 -24.2985 14.6796 -17.1312 0.368473 9.90896 -0.00117926 -6.99614 0.0276151 -2.29208 89.8996 -7.88487 18.8282 24.7531 13.8631 17.8171 -0.369625 9.91382 0.00119885 -8.81588 -33.1007 4.48476 -3.33044 33.5183 27.6136 -2.02414 -13.8274 -0.0515594 0.917627 1.09268 -0.454852 
8.88828 97.4565 113.295 -4.6043 0.984639 174.888 -4.86917 -11.937 3.06545 7.07821 57.0191 -3.25733 11.0494 4.1091 -0.941882 -0.0275752 -13.5129 -2.74869 -3.1367 3.04545 0.724933 0.882008 25.2593 -0.240223 1.66759 -7.09492 5.078 1.19271e-015 3.18055e-015 7.95139e-016 -95.142 -22.0171 -22.1861 -24.2466 14.4737 -16.1323 0.368473 9.90896 -0.00117926 -7.42213 0.0252225 -2.21092 90.686 -7.81748 19.6108 24.5214 13.902 17.7219 -0.369625 9.91382 0.00119885 -9.31575 -32.3297 6.95837 -2.41079 35.3019 25.368 -2.13658 -15.4894 -0.0919533 1.84493 2.27539 -0.908992 
8.68687 97.3911 111.68 -5.22643 1.29792 174.646 -5.30709 -12.8282 5.38687 7.84096 58.7501 -2.11526 13.7279 8.55963 -1.7005 0.0626674 -16.8097 2.72771 -3.9856 3.16479 0.799753 0.575495 25.9398 -0.229994 0.924989 -6.81353 5.40152 -7.95139e-016 -6.36111e-015 7.95139e-016 -95.1767 -21.2564 -23.1344 -24.3133 14.3645 -15.6549 0.368473 9.90896 -0.00117926 -7.82058 0.0200228 -2.27973 91.2348 -7.51834 20.4907 24.3524 13.9532 17.7789 -0.369625 9.91382 0.00119885 -9.86509 -31.5505 7.93944 -2.39593 36.4387 24.9937 -2.351 -16.5988 -0.130802 2.79052 3.8065 -1.3621 
8.50498 97.376 110.117 -5.80881 1.44121 174.499 -5.52239 -14.0499 7.72855 8.82602 60.6866 -1.69954 15.7184 11.3897 -2.26986 0.67656 -18.6776 9.55384 -4.82653 3.27132 0.889859 0.41955 26.4306 -0.251469 0.21052 -6.59538 5.6524 3.97569e-016 6.36111e-015 -1.59028e-015 -95.1507 -20.3429 -23.9783 -24.447 14.327 -15.5191 0.368473 9.90896 -0.00117926 -8.0976 0.0142183 -2.45921 91.5072 -6.98837 21.361 24.288 14.0059 17.9564 -0.369625 9.91382 0.00119885 -10.3858 -30.7993 8.22914 -2.79605 37.2066 25.2983 -2.62155 -17.5465 -0.176049 3.71183 5.27066 -1.81411 
8.34956 97.4474 108.533 -6.214 1.32231 174.553 -5.42984 -15.7125 9.69559 10.2139 63.123 -3.65455 14.9771 10.079 -1.99337 1.17913 -21.0048 13.0927 -5.42215 3.31516 0.958713 0.427205 26.6033 -0.295219 -0.136937 -6.52041 5.64854 -3.97569e-016 -3.18055e-015 7.95139e-016 -95.0128 -19.2829 -24.7341 -24.6446 14.3552 -15.6702 0.368473 9.90896 -0.00117926 -8.09965 0.00962016 -2.77571 91.3525 -6.11751 22.1381 24.4238 14.0394 18.2173 -0.369625 9.91382 0.00119885 -10.8263 -30.1093 8.24508 -3.23782 37.7235 25.3996 -2.94984 -18.6586 -0.240901 4.50726 6.21586 -2.24344 
8.21435 97.5562 106.964 -6.52273 1.10237 174.693 -5.16357 -17.5936 11.3356 11.942 65.4091 -6.73644 13.2334 7.03824 -1.44241 1.61967 -21.9937 16.1265 -5.90481 3.32507 1.02051 0.573591 26.653 -0.36439 -0.323466 -6.57384 5.55616 -3.97569e-016 0 7.95139e-016 -94.8887 -18.2112 -25.4673 -24.824 14.4405 -16.059 0.368473 9.90896 -0.00117926 -8.00338 0.00548178 -3.12362 90.9723 -5.114 22.833 24.6285 14.0907 18.6689 -0.369625 9.91382 0.00119885 -11.1991 -29.4157 8.13648 -3.68158 38.0612 25.4376 -3.26259 -19.7579 -0.308989 5.31511 7.01173 -2.70719 
8.09925 97.658 105.43 -6.76577 0.923426 174.819 -4.89838 -19.5533 12.4854 13.0771 67.0763 -9.61757 11.558 3.863 -0.982505 1.67465 -19.9633 20.0434 -6.32097 3.31325 1.07672 0.842742 26.7446 -0.459746 -0.444723 -6.80364 5.5195 -7.95139e-016 -3.18055e-015 -0 -94.9078 -17.3014 -26.239 -24.88 14.5794 -16.6651 0.368473 9.90896 -0.00117926 -7.96248 0.00183957 -3.38502 90.5552 -4.09676 23.4362 24.8064 14.1893 19.4296 -0.369625 9.91382 0.00119885 -11.5021 -28.6637 8.2737 -3.92505 38.348 25.1721 -3.4111 -20.7511 -0.355854 6.42016 7.94212 -3.36372 
7.99277 97.7741 103.916 -6.95494 0.750581 174.999 -4.63819 -21.5037 13.3164 14.0275 68.0861 -12.0721 9.91092 0.480688 -0.569095 1.20054 -16.3043 24.0962 -6.69145 3.27955 1.12902 1.22181 26.8403 -0.579433 -0.50041 -7.10194 5.42208 8.82781e-032 6.36111e-015 -7.95139e-016 -95.0214 -16.4284 -27.0633 -24.8698 14.7443 -17.349 0.368473 9.90896 -0.00117926 -7.89204 -0.00184899 -3.6232 90.04 -3.203 23.9175 24.9367 14.328 20.4303 -0.369625 9.91382 0.00119885 -11.8019 -27.8571 8.37424 -4.06392 38.5385 24.8609 -3.61755 -21.7133 -0.41704 7.32654 8.80983 -3.89408 
7.87302 97.913 102.416 -7.11943 0.58459 175.28 -4.45652 -23.3027 13.9362 14.7579 68.2492 -12.7996 8.69921 -2.66859 -0.286043 0.333828 -12.1005 28.319 -7.07012 3.22802 1.18511 1.72113 26.9524 -0.729762 -0.549908 -7.3937 5.18128 -3.97569e-016 -3.18055e-015 7.95139e-016 -95.2551 -15.5255 -27.9856 -24.8095 14.9147 -17.9655 0.368473 9.90896 -0.00117926 -7.73947 -0.00585531 -3.85096 89.39 -2.66679 24.2194 24.9496 14.5116 21.6574 -0.369625 9.91382 0.00119885 -12.2045 -26.9883 8.23468 -4.07732 38.6206 24.682 -4.0996 -22.7091 -0.526413 7.58843 9.51744 -4.01813 
7.77108 98.0694 100.929 -7.23685 0.460444 175.621 -4.29446 -24.9563 14.3497 15.0615 67.689 -13.1148 7.51587 -5.525 -0.0964775 -1.15663 -6.74237 32.4778 -7.40441 3.15822 1.22836 2.25589 27.0961 -0.887313 -0.514228 -7.62837 4.83864 -3.97569e-016 6.36111e-015 -0 -95.4893 -14.5998 -28.9754 -24.7296 15.0746 -18.5078 0.368473 9.90896 -0.00117926 -7.5615 -0.0109527 -4.10185 88.7496 -2.30156 24.3965 24.8881 14.7279 23.0651 -0.369625 9.91382 0.00119885 -12.5441 -26.0328 8.01006 -4.13086 38.6255 24.6497 -4.73225 -23.6778 -0.668327 7.25806 10.0595 -3.7637 
7.72189 98.2497 99.4585 -7.29869 0.418054 176.012 -4.0977 -26.4253 14.5915 14.9056 66.402 -14.4128 5.89904 -8.03296 -0.00575861 -3.39798 -0.0534298 36.8825 -7.67414 3.07274 1.23952 2.72372 27.3146 -1.02757 -0.276854 -7.70918 4.38502 -7.95139e-016 3.18055e-015 -3.97569e-016 -95.5929 -13.6118 -30.058 -24.6623 15.1925 -18.8747 0.368473 9.90896 -0.00117926 -7.38571 -0.0188441 -4.44216 88.2607 -2.00199 24.5092 24.7637 14.9752 24.6319 -0.369625 9.91382 0.00119885 -12.6582 -24.9676 7.69335 -4.52699 38.6 25.0427 -5.65038 -24.6593 -0.87976 5.823 9.93806 -2.81531 
7.69195 98.4285 97.9824 -7.29832 0.443901 176.4 -3.88822 -27.6893 14.6811 14.0849 64.4486 -15.5056 4.42761 -9.74112 0.0175784 -6.74936 7.65603 41.0158 -7.83638 2.96658 1.23423 3.18771 27.5359 -1.16021 0.00178245 -7.69845 3.89083 -1.19271e-015 0 -0 -95.625 -12.6381 -31.1156 -24.6269 15.2993 -19.2022 0.368473 9.90896 -0.00117926 -7.24716 -0.0270005 -4.78641 87.8667 -1.76992 24.4931 24.603 15.2284 26.2719 -0.369625 9.91382 0.00119885 -12.6651 -23.7825 7.55806 -4.82739 38.4834 25.2413 -6.28833 -25.416 -1.03539 4.56062 10.5234 -1.92622 
7.65066 98.5752 96.4642 -7.21141 0.556486 176.702 -3.64011 -28.6955 14.6014 12.4714 61.8607 -15.9198 3.74923 -9.65944 -0.00486368 -11.7148 18.5676 44.4808 -7.80738 2.82833 1.22328 3.69833 27.704 -1.28981 0.185826 -7.61712 3.4342 1.39149e-015 -3.18055e-015 7.95139e-016 -95.6016 -11.7319 -32.0075 -24.6731 15.4162 -19.626 0.368473 9.90896 -0.00117926 -7.23362 -0.0323736 -5.04746 87.5679 -1.54435 24.2751 24.4499 15.4677 27.9026 -0.369625 9.91382 0.00119885 -12.683 -22.4041 8.01711 -4.56582 38.1813 24.4051 -5.7945 -25.6182 -0.951946 5.69489 13.3994 -2.60412 
7.62428 98.7115 94.9523 -7.08264 0.699632 177 -3.40623 -29.4907 14.5086 10.678 58.7731 -15.7564 3.23661 -9.34837 -0.0486774 -16.7262 27.1952 48.792 -7.68933 2.67989 1.20197 4.18825 27.8134 -1.40588 0.317135 -7.49406 2.98304 -5.96354e-016 -3.18055e-015 7.95139e-016 -95.5683 -10.9081 -32.8298 -24.734 15.5339 -20.0477 0.368473 9.90896 -0.00117926 -7.21423 -0.0382523 -5.29654 87.3342 -1.40905 23.9446 24.2843 15.6948 29.4868 -0.369625 9.91382 0.00119885 -12.6663 -21.0101 8.59987 -4.16137 37.832 23.4982 -5.13064 -25.5841 -0.826282 5.8442 17.4493 -2.28466 
7.63639 98.8528 93.4936 -6.95917 0.817488 177.378 -3.21409 -30.0925 14.6166 9.52394 55.33 -14.8651 2.26339 -10.5067 -0.0826257 -17.635 27.2038 50.8982 -7.58858 2.54094 1.16625 4.5949 27.8424 -1.49935 0.38381 -7.36787 2.50653 -0 0 3.97569e-016 -95.5611 -10.1861 -33.6427 -24.7574 15.6637 -20.4552 0.368473 9.90896 -0.00117926 -7.04802 -0.0486314 -5.62195 87.1159 -1.4215 23.5864 24.1061 15.9098 30.9561 -0.369625 9.91382 0.00119885 -12.5411 -19.8077 8.86645 -3.88197 37.5777 23.6086 -5.1853 -25.4136 -0.828689 -1.38598 23.0311 3.69892 
7.66444 98.9876 92.0561 -6.80572 0.927273 177.741 -3.06148 -30.5271 14.7669 8.66453 51.4724 -13.8308 1.47485 -11.7295 -0.105818 -16.8487 25.2322 51.4354 -7.40894 2.40673 1.12492 4.95355 27.7846 -1.57009 0.406092 -7.23067 2.07831 -3.97569e-016 0 -3.97569e-016 -95.6197 -9.60093 -34.4061 -24.7517 15.7666 -20.7253 0.368473 9.90896 -0.00117926 -6.85346 -0.0583178 -5.88527 86.9573 -1.6061 23.1401 23.9089 16.1127 32.3204 -0.369625 9.91382 0.00119885 -12.3504 -18.6291 9.1924 -3.60715 37.3953 23.4634 -5.3397 -25.433 -0.861611 -7.63211 26.9822 8.50918 
7.68878 99.1128 90.6205 -6.58045 1.02141 177.989 -2.94671 -30.8481 14.9275 7.78153 47.1772 -13.0145 1.44545 -12.0627 -0.100427 -16.9175 25.3361 51.525 -7.05062 2.27676 1.0854 5.28297 27.6024 -1.61134 0.380493 -7.07218 1.78039 5.96354e-016 3.18055e-015 -0 -95.8219 -9.24321 -35.086 -24.7024 15.8036 -20.716 0.368473 9.90896 -0.00117926 -6.71053 -0.0619386 -5.91761 86.8919 -2.05137 22.5448 23.6774 16.3105 33.5876 -0.369625 9.91382 0.00119885 -12.1333 -17.3302 9.85165 -3.39737 37.292 21.7601 -5.17673 -26.2538 -0.880622 -0.0519383 25.2277 2.82094 
